<?xml version="1.0" encoding="UTF-8" standalone="no"?>
<!DOCTYPE svg PUBLIC "-//W3C//DTD SVG 1.1//EN" "http://www.w3.org/Graphics/SVG/1.1/DTD/svg11.dtd">
<svg width="100%" height="100%" viewBox="0 0 500 500" version="1.1" xmlns="http://www.w3.org/2000/svg" xmlns:xlink="http://www.w3.org/1999/xlink" xml:space="preserve" xmlns:serif="http://www.serif.com/" style="fill-rule:evenodd;clip-rule:evenodd;stroke-linejoin:round;stroke-miterlimit:2;">
    <rect id="Artboard1" x="0" y="0" width="500" height="500" style="fill:none;"/>
    <g id="Artboard11" serif:id="Artboard1">
        <g transform="matrix(292.711,292.711,292.711,-292.711,94.3282,73.3417)">
            <path d="M0.04,0.221C0.015,0.163 0.002,0.102 0,0.039C-0.001,-0.023 0.009,-0.083 0.031,-0.14C0.053,-0.199 0.087,-0.252 0.132,-0.296C0.213,-0.377 0.321,-0.425 0.436,-0.43C0.535,-0.434 0.633,-0.407 0.717,-0.354L0.901,-0.538L0.934,-0.451C0.936,-0.445 0.985,-0.314 0.997,-0.145C1.005,-0.045 0.998,0.048 0.977,0.132C0.95,0.238 0.9,0.328 0.828,0.4C0.74,0.488 0.621,0.535 0.494,0.532C0.366,0.529 0.244,0.476 0.15,0.382C0.15,0.382 0.15,0.382 0.15,0.382C0.103,0.335 0.066,0.281 0.04,0.221ZM0.735,-0.203C0.735,-0.203 0.589,-0.323 0.447,-0.314C0.36,-0.309 0.277,-0.274 0.215,-0.212C0.205,-0.202 0.195,-0.19 0.185,-0.178L0.186,-0.178C0.117,-0.088 0.136,0.015 0.2,0.079C0.258,0.137 0.341,0.152 0.408,0.124C0.38,0.191 0.395,0.274 0.453,0.332C0.515,0.394 0.615,0.413 0.703,0.351L0.702,0.353C0.717,0.342 0.731,0.33 0.744,0.316C0.802,0.259 0.842,0.186 0.864,0.099C0.882,0.028 0.888,-0.052 0.882,-0.14C0.877,-0.21 0.867,-0.275 0.855,-0.323L0.735,-0.203ZM0.595,0.222L0.548,0.175C0.574,0.149 0.616,0.149 0.642,0.175C0.668,0.201 0.668,0.243 0.642,0.269C0.616,0.295 0.574,0.295 0.548,0.269L0.595,0.222ZM0.307,-0.066L0.26,-0.113C0.286,-0.139 0.328,-0.139 0.354,-0.113C0.38,-0.087 0.38,-0.045 0.354,-0.019C0.328,0.007 0.286,0.007 0.26,-0.019L0.307,-0.066ZM0.472,-0.02C0.498,-0.047 0.607,-0.075 0.607,-0.075C0.607,-0.075 0.579,0.034 0.552,0.06C0.532,0.081 0.496,0.08 0.474,0.058C0.452,0.036 0.451,0 0.472,-0.02Z" style="fill:url(#_Linear1);fill-rule:nonzero;"/>
        </g>
    </g>
    <defs>
        <linearGradient id="_Linear1" x1="0" y1="0" x2="1" y2="0" gradientUnits="userSpaceOnUse" gradientTransform="matrix(1,0,0,-1,0,-0.00288487)"><stop offset="0" style="stop-color:rgb(27,225,184);stop-opacity:1"/><stop offset="1" style="stop-color:rgb(0,172,255);stop-opacity:1"/></linearGradient>
    </defs>
</svg>
